<?xml version="1.0" standalone="no"?><!DOCTYPE svg PUBLIC "-//W3C//DTD SVG 1.1//EN" "http://www.w3.org/Graphics/SVG/1.1/DTD/svg11.dtd"><svg class="icon" width="24px" height="24.00px" viewBox="0 0 1024 1024" version="1.1" xmlns="http://www.w3.org/2000/svg"><path d="M937.984 749.568c-6.144 10.24-18.432 14.336-28.672 8.192-10.24-6.144-14.336-18.432-8.192-28.672 120.832-217.088 43.008-491.52-176.128-612.352-217.088-120.832-491.52-43.008-612.352 176.128-120.832 217.088-43.008 491.52 176.128 612.352 157.696 88.064 348.16 71.68 489.472-34.816 8.192-6.144 22.528-4.096 28.672 4.096 6.144 8.192 4.096 22.528-4.096 28.672-153.6 116.736-362.496 133.12-534.528 36.864-237.568-131.072-323.584-430.08-192.512-667.648 131.072-237.568 430.08-323.584 667.648-192.512 239.616 133.12 325.632 432.128 194.56 669.696z m-532.48-34.816v-403.456l303.104 202.752-303.104 200.704z m40.96-327.68v251.904l188.416-124.928-188.416-126.976z" fill="#555555" /></svg>