<?xml version="1.0" standalone="no"?><!DOCTYPE svg PUBLIC "-//W3C//DTD SVG 1.1//EN" "http://www.w3.org/Graphics/SVG/1.1/DTD/svg11.dtd"><svg class="icon" width="24px" height="24.00px" viewBox="0 0 1024 1024" version="1.1" xmlns="http://www.w3.org/2000/svg"><path d="M146.14528 313.7536a436.51072 436.51072 0 0 0-72.66304 241.8688c0 146.55488 72.4992 280.94464 191.20128 362.16832 24.1664 16.50688 49.84832 30.55616 76.8 41.94304a20.48 20.48 0 1 0 15.9744-37.72416 396.65664 396.65664 0 0 1-69.632-38.05184 397.02528 397.02528 0 0 1-173.38368-328.33536c0-79.09376 23.1424-154.70592 65.86368-219.21792a20.48 20.48 0 1 0-34.16064-22.60992z m248.79104 664.53504a435.6096 435.6096 0 0 0 117.06368 15.81056 439.0912 439.0912 0 0 0 182.272-39.5264c30.43328-13.9264 59.1872-31.3344 85.64736-51.8144a437.73952 437.73952 0 0 0 170.5984-347.136 436.55168 436.55168 0 0 0-124.96896-306.5856 20.48 20.48 0 0 0-29.2864 28.672 395.59168 395.59168 0 0 1 113.29536 277.9136 396.77952 396.77952 0 0 1-154.66496 314.73664 397.43488 397.43488 0 0 1-140.0832 69.38624 400.34304 400.34304 0 0 1-208.97792-0.90112 20.48 20.48 0 1 0-10.89536 39.44448zM781.06624 209.3056a438.43584 438.43584 0 0 0-111.04256-62.8736 20.48 20.48 0 1 0-14.7456 38.21568A394.93632 394.93632 0 0 1 755.9168 241.664a20.48 20.48 0 0 0 25.14944-32.3584zM512 117.1456a436.51072 436.51072 0 0 0-304.45568 122.88 20.48 20.48 0 1 0 28.4672 29.4912 395.55072 395.55072 0 0 1 275.98848-111.4112 20.48 20.48 0 1 0 0-40.96z" fill="#555555" /><path d="M477.02016 177.31584a20.48 20.48 0 0 0 28.99968 28.95872l48.04608-48.08704a30.14656 30.14656 0 0 0 0-42.68032l-48.04608-48.08704a20.48 20.48 0 0 0-28.99968 28.99968l40.46848 40.42752-40.46848 40.46848zM550.83008 728.43264h-41.7792v-318.50496H450.56L476.11904 368.64h74.71104z" fill="#555555" /></svg>